<svg id="Capa_1" enable-background="new 0 0 512 512" height="512" viewBox="0 0 512 512" width="512" xmlns="http://www.w3.org/2000/svg"><g><path d="m346.586 87.881-50.625 87.685 45.466 26.25c7.174 4.142 16.348 1.684 20.49-5.49l43.125-74.695c9.32-16.142 3.789-36.784-12.353-46.103-16.142-9.321-36.783-3.79-46.103 12.353z" fill="#525cdd"/><g><path d="m217 411h-202c-8.284 0-15-6.716-15-15v-180c0-8.284 6.716-15 15-15h202c8.284 0 15 6.716 15 15v180c0 8.284-6.716 15-15 15z" fill="#f1f1f4"/></g><g><path d="m0 306v90c0 8.284 6.716 15 15 15h202c8.284 0 15-6.716 15-15v-90z" fill="#e2dff4"/></g><g><path d="m217 411c-57.897 0-105-47.103-105-105s47.103-105 105-105c8.284 0 15 6.716 15 15v180c0 8.284-6.716 15-15 15z" fill="#ffb454"/></g><g><path d="m112 306c0 57.897 47.103 105 105 105 8.284 0 15-6.716 15-15v-90z" fill="#ff8659"/></g><g><g><g><path d="m392 231v-45c0-8.284-6.716-15-15-15h-130c-24.853 0-45 20.147-45 45v180c0 24.853 20.147 45 45 45h130c8.284 0 15-6.716 15-15v-45l-14-75z" fill="#f1f1f4"/></g><g><path d="m202 306v90c0 24.853 20.147 45 45 45h130c8.284 0 15-6.716 15-15v-45l-14-75z" fill="#e2dff4"/></g><g><path d="m392 381h-95c-8.284 0-15-6.716-15-15v-120c0-8.284 6.716-15 15-15h95z" fill="#ffb454"/></g><g><path d="m282 306v60c0 8.284 6.716 15 15 15h95v-75z" fill="#ff8659"/></g></g></g><g><path d="m478.25 441h-101.25v-67.5h101.25c18.64 0 33.75 15.11 33.75 33.75 0 18.64-15.11 33.75-33.75 33.75z" fill="#00337a"/><path d="m478.25 373.5h-101.25v-67.5h101.25c18.64 0 33.75 15.11 33.75 33.75 0 18.64-15.11 33.75-33.75 33.75z" fill="#00337a"/><g fill="#525cdd"><path d="m478.25 306h-101.25v-67.5h101.25c18.64 0 33.75 15.11 33.75 33.75 0 18.64-15.11 33.75-33.75 33.75z"/><path d="m478.25 238.5h-101.25v-67.5h101.25c18.64 0 33.75 15.11 33.75 33.75 0 18.64-15.11 33.75-33.75 33.75z"/></g></g></g></svg>