<svg width="512" height="512" viewBox="0 0 512 512" fill="none" xmlns="http://www.w3.org/2000/svg">
<path d="M256 512C397.385 512 512 397.385 512 256C512 114.615 397.385 0 256 0C114.615 0 0 114.615 0 256C0 397.385 114.615 512 256 512Z" fill="#FFE285"/>
<path d="M512 256H0C0 397.385 114.615 512 256 512C397.385 512 512 397.385 512 256Z" fill="#F9C10C"/>
<path d="M185.999 401C183.666 401 181.326 400.457 179.172 399.355C174.156 396.791 171 391.633 171 386V126C171 120.367 174.156 115.209 179.171 112.645C184.186 110.081 190.215 110.542 194.782 113.84L374.782 243.84C378.687 246.66 381 251.184 381 256C381 260.816 378.687 265.34 374.782 268.16L194.782 398.16C192.177 400.042 189.096 401 185.999 401V401Z" fill="#F9F9F9"/>
<path d="M171 256V386C171 391.633 174.156 396.791 179.171 399.355C181.325 400.457 183.666 401 185.998 401C189.095 401 192.177 400.042 194.782 398.16L374.782 268.16C378.686 265.34 381 260.816 381 256H171Z" fill="#E2DFF4"/>
</svg>
