<svg id="Layer_1" enable-background="new 0 0 510 510" height="512" viewBox="0 0 510 510" width="512" xmlns="http://www.w3.org/2000/svg"><g><path d="m135 315h-45c-33.084 0-60-26.916-60-60v-32.574l15-12.426 15 12.427v32.573c0 16.542 13.458 30 30 30h45l15 17z" fill="#55696e"/><path d="m45 225c-24.813 0-45-20.187-45-45v-15h30v15c0 8.271 6.729 15 15 15s15-6.729 15-15v-15h30v15c0 24.813-20.187 45-45 45z" fill="#ff5c5c"/><path d="m450 255c0 16.542-13.457 30-30 30-14.05 0-30.905 0-45 0l-15 15 15 15h45c33.083 0 60-26.915 60-60 0-6.421 0-26.156 0-32.57l-15-12.43-15 12.43v10.07z" fill="#3f4a4a"/><path d="m480 180c0 4.136-1.682 7.886-4.398 10.602-5.863 5.863-15.336 5.867-21.203 0-2.717-2.716-4.399-6.466-4.399-10.602 0-5.246 0-9.754 0-15-10.492 0-19.508 0-30 0v15c0 24.812 20.186 45 45 45 24.812 0 45-20.186 45-45 0-5.246 0-9.754 0-15-10.492 0-19.508 0-30 0z" fill="#e20059"/><path d="m195 225v30l30 10 30-10 10-15-10-15-30-10z" fill="#93bdcf"/><path d="m315 225-30-10-30 10v30l30 10 30-10c0-10.492 0-19.508 0-30z" fill="#7baec0"/><path d="m240 42.429v32.571l7.5 10 7.5-10 10-15.5-10-14.5-6.375-8.75z" fill="#93bdcf"/><path d="m260.75 36.5-5.75 8.5v30l7.5 10 7.5-10c0-6.421 0-26.156 0-32.57z" fill="#7baec0"/><path d="m240 0c-10.492 0-19.508 0-30 0 0 24.812 20.186 45 45 45l10-15-10-15c-8.27 0-15-6.729-15-15z" fill="#7baec0"/><path d="m300 0c-10.492 0-19.508 0-30 0 0 8.271-6.728 15-15 15v30c24.812 0 45-20.186 45-45z" fill="#69a0ae"/><path d="m150 75v150h105l10-75-10-75c-28.278 0-88.527 0-105 0z" fill="#b0d3e7"/><path d="m360 225c0-10.128 0-139.871 0-150-28.278 0-88.527 0-105 0v150z" fill="#93bdcf"/><path d="m135 255v121.891l60 8.109 60-10 10-60-10-60c-14.518 0-105.386 0-120 0z" fill="#2becfd"/><path d="m375 255c-14.518 0-105.386 0-120 0v120l60 10 60-8.082c0-6.694 0-115.174 0-121.918z" fill="#2bd1fd"/><path d="m210 135h30v30h-30z" fill="#55696e"/><path d="m270 135h30v30h-30z" fill="#3f4a4a"/><path d="m150 375c-33.136 0-60 26.862-60 60v15c0 33.136 26.862 60 60 60h105l10-67.5-10-67.5c-28.278 0-88.527 0-105 0z" fill="#93bdcf"/><path d="m420 450c0-5.246 0-9.754 0-15 0-33.136-26.862-60-60-60-28.278 0-88.527 0-105 0v135h105c33.136 0 60-26.862 60-60z" fill="#7baec0"/><path d="m270 427h30v30h-30z" fill="#3f4a4a"/><path d="m330 427h30v30h-30z" fill="#3f4a4a"/><g fill="#55696e"><path d="m210 427h30v30h-30z"/><path d="m150 427h30v30h-30z"/></g></g></svg>