<svg id="Capa_1" enable-background="new 0 0 512 512" height="512" viewBox="0 0 512 512" width="512" xmlns="http://www.w3.org/2000/svg"><g><g><path d="m451 427v.009c0 2.026-.41 4.03-1.206 5.893l-29.903 69.991c-2.36 5.524-7.787 9.107-13.794 9.107h-10.097c-8.284 0-15-6.716-15-15v-70c0-8.284 6.716-15 15-15h40c8.284 0 15 6.716 15 15z" fill="#00337a"/></g><g><path d="m61 427v.009c0 2.026.41 4.03 1.206 5.893l29.903 69.991c2.36 5.524 7.787 9.107 13.794 9.107h10.097c8.284 0 15-6.716 15-15v-70c0-8.284-6.716-15-15-15h-40c-8.284 0-15 6.716-15 15z" fill="#525cdd"/></g><path d="m221.333 430.142 15 70.001c1.482 6.916 7.594 11.857 14.667 11.857h10c7.073 0 13.185-4.941 14.667-11.857l15-70.001c.221-1.033.333-2.086.333-3.142v-.01c0-8.279-6.711-14.99-14.99-14.99h-40.02c-8.279 0-14.99 6.711-14.99 14.99v.01c0 1.056.112 2.109.333 3.142z" fill="#525cdd"/><path d="m275.667 500.143 15-70.001c.221-1.033.333-2.086.333-3.142v-.01c0-8.279-6.711-14.99-14.99-14.99h-20.01v100h5c7.073 0 13.185-4.941 14.667-11.857z" fill="#00337a"/><g><path d="m381 332c0-8.284 6.716-15 15-15h40c8.284 0 15 6.716 15 15v95h-70z" fill="#bebcdd"/></g><g><path d="m131 332c0-8.284-6.716-15-15-15h-40c-8.284 0-15 6.716-15 15v95h70z" fill="#e2dff4"/></g><path d="m396 262h-280c-30.376 0-55 24.624-55 55v15h110l85-12 85 12h110v-15c0-30.376-24.624-55-55-55z" fill="#f1f1f4"/><path d="m396 262h-140v58l85 12h110v-15c0-30.376-24.624-55-55-55z" fill="#e2dff4"/><g><path d="m291 212h-70v-92h70z" fill="#f1f1f4"/></g><path d="m256 120h35v92h-35z" fill="#e2dff4"/><g><path d="m276 302h-40c-8.284 0-15 6.716-15 15v110h70v-110c0-8.284-6.716-15-15-15z" fill="#e2dff4"/></g><path d="m276 302h-20v125h35v-110c0-8.284-6.716-15-15-15z" fill="#bebcdd"/><g><path d="m341 332h-170v-85c0-30.376 24.624-55 55-55h60c30.376 0 55 24.624 55 55z" fill="#525cdd"/></g><path d="m286 192h-30v140h85v-85c0-30.376-24.624-55-55-55z" fill="#00337a"/><g><path d="m276 272h-40c-8.284 0-15-6.716-15-15s6.716-15 15-15h40c8.284 0 15 6.716 15 15s-6.716 15-15 15z" fill="#fff48b"/></g><path d="m276 242h-20v30h20c8.284 0 15-6.716 15-15s-6.716-15-15-15z" fill="#ffdd54"/><g><path d="m171 75c0 31.172 21.121 58.224 51.362 65.783 1.19.298 2.412.448 3.638.448h60c1.227 0 2.448-.15 3.638-.448 30.241-7.559 51.362-34.611 51.362-65.783 0-8.284-6.716-15-15-15h-140c-8.284 0-15 6.716-15 15z" fill="#ff8659"/></g><path d="m326 60h-70v81.231h30c1.227 0 2.448-.15 3.638-.448 30.241-7.559 51.362-34.611 51.362-65.783 0-8.284-6.716-15-15-15z" fill="#ff6b6b"/><path d="m341 15c0-8.284-6.716-15-15-15h-140c-8.284 0-15 6.716-15 15v60h170z" fill="#ffb454"/><path d="m341 75v-60c0-8.284-6.716-15-15-15h-70v75z" fill="#ff8659"/></g></svg>