<svg id="Layer_1" enable-background="new 0 0 512.079 512.079" height="512" viewBox="0 0 512.079 512.079" width="512" xmlns="http://www.w3.org/2000/svg"><g><path d="m256.04 57.14c-8.284 0-15-6.716-15-15v-27.14c0-8.284 6.716-15 15-15s15 6.716 15 15v27.14c0 8.284-6.716 15-15 15z" fill="#1428bf"/></g><path d="m256.311 0v57.112c8.158-.146 14.729-6.794 14.729-14.986v-27.14c0-8.192-6.571-14.84-14.729-14.986z" fill="#132c63"/><g><path d="m342.984 42.14h-173.889c-8.011 0-14.505 6.494-14.505 14.506v43.13h202.9v-43.13c0-8.012-6.495-14.506-14.506-14.506z" fill="#17cdf5"/><path d="m107.95 216.436h-93.405c-8.011 0-14.505 6.494-14.505 14.505v106.916c0 8.011 6.494 14.505 14.505 14.505h108.405z" fill="#ff001e"/><path d="m497.534 216.436h-139.61l-5.33 135.927h144.94c8.011 0 14.505-6.494 14.505-14.505v-106.916c0-8.011-6.494-14.506-14.505-14.506z" fill="#c30010"/><path d="m411.366 84.745h-310.111c-26.158 0-47.363 21.205-47.363 47.363v332.608c0 26.158 21.205 47.363 47.363 47.363h310.111c26.158 0 47.363-21.205 47.363-47.363v-332.608c0-26.158-21.205-47.363-47.363-47.363z" fill="#76e2f8"/><path d="m342.984 42.14h-86.673v57.636h101.179v-43.13c0-8.012-6.495-14.506-14.506-14.506z" fill="#59a7ff"/><path d="m411.366 84.745h-155.055v427.334h155.056c26.158 0 47.363-21.205 47.363-47.363v-332.608c-.001-26.158-21.206-47.363-47.364-47.363z" fill="#17cdf5"/><g><path d="m339.37 432.54-13.97-98.285h-69.096l-9.584 98.285z" fill="#f1e1db"/><path d="m339.37 334.255h-13.97v98.285h13.969c27.141 0 49.142-22.002 49.142-49.142.001-27.141-22.001-49.143-49.141-49.143z" fill="#e0d2cd"/><path d="m256.304 334.255h-69.096v28.92l-20.874-6.11 20.874 75.475h69.096v-49.142z" fill="#e0d2cd"/><path d="m177.71 334.256c-27.141 0-49.142 22.002-49.142 49.142 0 27.141 22.002 49.142 49.142 49.142h9.498v-98.285h-9.498z" fill="#fff4f4"/></g><g><g><circle cx="337.593" cy="222.337" fill="#fff4f4" r="36.64"/><path d="m337.594 273.977c-28.475 0-51.64-23.165-51.64-51.64s23.165-51.64 51.64-51.64 51.64 23.165 51.64 51.64-23.166 51.64-51.64 51.64zm0-73.28c-11.933 0-21.64 9.707-21.64 21.64s9.707 21.64 21.64 21.64 21.64-9.707 21.64-21.64-9.708-21.64-21.64-21.64z" fill="#000f35"/></g><g><circle cx="174.485" cy="222.337" fill="#fff" r="36.64"/><path d="m174.485 273.977c-28.475 0-51.64-23.165-51.64-51.64s23.165-51.64 51.64-51.64 51.64 23.165 51.64 51.64-23.165 51.64-51.64 51.64zm0-73.28c-11.933 0-21.64 9.707-21.64 21.64s9.707 21.64 21.64 21.64 21.64-9.707 21.64-21.64-9.707-21.64-21.64-21.64z" fill="#132c63"/></g></g></g></svg>