<svg id="Capa_1" enable-background="new 0 0 512 512" height="512" viewBox="0 0 512 512" width="512" xmlns="http://www.w3.org/2000/svg"><g><path d="m326 130h-140c-8.284 0-15-6.716-15-15v-30c0-46.869 38.131-85 85-85s85 38.131 85 85v30c0 8.284-6.716 15-15 15z" fill="#9bfbff"/><path d="m326 330h-140c-8.284 0-15-6.716-15-15v-80c0-8.284 6.716-15 15-15h140c8.284 0 15 6.716 15 15v80c0 8.284-6.716 15-15 15z" fill="#dfdef5"/><path d="m326 330c8.284 0 15-6.716 15-15v-80c0-8.284-6.716-15-15-15h-70v110z" fill="#d2d0f2"/><path d="m326 300h-140c-24.853 0-45 20.147-45 45v127l60-20v-77c0-8.284 6.716-15 15-15h80c8.284 0 15 6.716 15 15v77l60 20v-127c0-24.853-20.147-45-45-45z" fill="#fff5f5"/><path d="m296 360c8.284 0 15 6.716 15 15v77l60 20v-127c0-24.853-20.147-45-45-45h-70v60z" fill="#dfdef5"/><path d="m401 512h-75c-8.284 0-15-6.716-15-15v-45h60c24.853 0 45 20.147 45 45 0 8.284-6.716 15-15 15z" fill="#d2d0f2"/><path d="m96 497c0-24.853 20.147-45 45-45h60v45c0 8.284-6.716 15-15 15h-75c-8.284 0-15-6.716-15-15z" fill="#dfdef5"/><path d="m341 115v-30c0-46.869-38.131-85-85-85v130h70c8.284 0 15-6.716 15-15z" fill="#5ecef4"/><g><path d="m61 292.58v-97.58c0-8.284-6.716-15-15-15s-15 6.716-15 15v97.58c-17.459 6.192-30 22.865-30 42.42 0 8.284 6.716 15 15 15s15-6.716 15-15c0-8.271 6.729-15 15-15s15 6.729 15 15c0 8.284 6.716 15 15 15s15-6.716 15-15c0-19.555-12.541-36.228-30-42.42z" fill="#dfdef5"/><path d="m481 292.58v-97.58c0-8.284-6.716-15-15-15s-15 6.716-15 15v97.58c-17.459 6.192-30 22.865-30 42.42 0 8.284 6.716 15 15 15s15-6.716 15-15c0-8.271 6.729-15 15-15s15 6.729 15 15c0 8.284 6.716 15 15 15s15-6.716 15-15c0-19.555-12.541-36.228-30-42.42z" fill="#d2d0f2"/></g><path d="m436 170h-60c-8.284 0-15-6.716-15-15s6.716-15 15-15h60c8.284 0 15 6.716 15 15s-6.716 15-15 15z" fill="#d2d0f2"/><path d="m136 170h-60c-8.284 0-15-6.716-15-15s6.716-15 15-15h60c8.284 0 15 6.716 15 15s-6.716 15-15 15z" fill="#dfdef5"/><path d="m496 210h-60c-8.284 0-15-6.716-15-15v-50c0-24.813 20.187-45 45-45s45 20.187 45 45v50c0 8.284-6.716 15-15 15z" fill="#dfdef5"/><path d="m76 210h-60c-8.284 0-15-6.716-15-15v-50c0-24.813 20.187-45 45-45s45 20.187 45 45v50c0 8.284-6.716 15-15 15z" fill="#fff5f5"/><path d="m346 250h-180c-24.813 0-45-20.187-45-45v-60c0-24.813 20.187-45 45-45h180c24.813 0 45 20.187 45 45v60c0 24.813-20.187 45-45 45z" fill="#fff5f5"/><path d="m346 100h-90v150h90c24.813 0 45-20.187 45-45v-60c0-24.813-20.187-45-45-45z" fill="#dfdef5"/><path d="m316 190h-120c-8.284 0-15-6.716-15-15s6.716-15 15-15h120c8.284 0 15 6.716 15 15s-6.716 15-15 15z" fill="#09607d"/><path d="m316 160h-60v30h60c8.284 0 15-6.716 15-15s-6.716-15-15-15z" fill="#07485e"/></g></svg>